<svg xmlns="http://www.w3.org/2000/svg" xmlns:xlink="http://www.w3.org/1999/xlink" viewBox="0,0,256,256" width="50px" height="50px" fill-rule="nonzero"><g fill="#ffffff" fill-rule="nonzero" stroke="none" stroke-width="1" stroke-linecap="butt" stroke-linejoin="miter" stroke-miterlimit="10" stroke-dasharray="" stroke-dashoffset="0" font-family="none" font-weight="none" font-size="none" text-anchor="none" style="mix-blend-mode: normal"><g transform="scale(5.12,5.12)"><path d="M6.69922,4c-1.49259,0 -2.69922,1.20663 -2.69922,2.69922v36.60156c0,1.10156 0.75465,1.86497 1.69922,2.28516v0.51367h37.60156c1.49259,0 2.69922,-1.20663 2.69922,-2.69922v-36.70117c0,-1.49259 -1.13294,-2.69922 -2.59961,-2.69922zM6.69922,6h36.70117c0.13333,0 0.59961,0.39181 0.59961,0.69922v36.70117c0,0.30741 -0.39181,0.69922 -0.69922,0.69922h-35.60156v-0.09961h-1c-0.30741,0 -0.69922,-0.39181 -0.69922,-0.69922v-36.60156c0,-0.30741 0.39181,-0.69922 0.69922,-0.69922zM23,23v12.59961c0,1.9 -0.7,2.40039 -2,2.40039c-1.4,0 -2.30039,-0.80039 -2.90039,-1.90039l-3.09961,1.90039c0.9,1.9 3.09922,4 6.19922,4c3.5,0 5.80078,-1.80078 5.80078,-5.80078v-13.19922zM35.40039,23.09961c-3.4,0 -5.59961,2.1 -5.59961,5c0,3.1 1.79961,4.50117 4.59961,5.70117c1.6,0.6 3.79961,1.29844 3.59961,2.89844c0,1.1 -0.80039,1.90039 -2.40039,1.90039c-1.9,0 -2.79961,-1.29961 -3.59961,-2.59961l-3.09961,2.09961c1.1,2.2 3.19922,4 6.69922,4c3.6,0 6.30078,-1.89883 6.30078,-5.29883c0.1,-3.5 -2.79961,-5.10039 -6.09961,-6.40039c-1.6,-0.7 -2.30078,-1.20078 -2.30078,-2.30078c0,-0.9 0.70078,-1.59961 1.80078,-1.59961c1.1,0 1.8,0.39961 2.5,1.59961l3,-1.90039c-1.2,-2.3 -3.00039,-3.09961 -5.40039,-3.09961z"></path></g></g></svg>