<svg xmlns="http://www.w3.org/2000/svg" xmlns:xlink="http://www.w3.org/1999/xlink" viewBox="0,0,256,256" width="50px" height="50px" fill-rule="nonzero"><g fill="#ffffff" fill-rule="nonzero" stroke="none" stroke-width="1" stroke-linecap="butt" stroke-linejoin="miter" stroke-miterlimit="10" stroke-dasharray="" stroke-dashoffset="0" font-family="none" font-weight="none" font-size="none" text-anchor="none" style="mix-blend-mode: normal"><g transform="scale(5.12,5.12)"><path d="M5,4c-0.55226,0.00006 -0.99994,0.44774 -1,1v40c0.00006,0.55226 0.44774,0.99994 1,1h40c0.55226,-0.00006 0.99994,-0.44774 1,-1v-40c-0.00006,-0.55226 -0.44774,-0.99994 -1,-1zM6,6h38v38h-38zM15,23v3.44531h5v15.55469h4v-15.55469h5v-3.44531zM36.69141,23.00977c-3.11462,-0.0124 -6.67383,0.93145 -6.67383,5.31445c0,5.73 7.7207,5.73141 7.7207,8.31641c0,0.245 0.10391,2.02539 -2.62109,2.02539c-2.725,0 -4.99609,-1.71289 -4.99609,-1.71289v4.1582c0,0 11.88086,3.84273 11.88086,-4.82227c-0.001,-5.625 -7.79297,-5.34367 -7.79297,-8.13867c0,-1.083 0.76939,-2.0957 2.90039,-2.0957c2.131,0 4.01758,1.25781 4.01758,1.25781l0.14063,-3.70508c0,0 -2.15369,-0.58801 -4.57617,-0.59766z"></path></g></g></svg>